<svg xmlns="http://www.w3.org/2000/svg" width="550" height="160" viewBox="0 0 550 160">
  <polygon
    points="480.5 178.3 487.3 168.3 494.6 158.6 503.2 150.1 512.5 142.4 520.4 133.3 526.7 122.9 531 111.9 534.6 102 536.8 91.8 537.8 81.2 541.7 71.6 552.5 61.7 565.1 52.7 551.7 49 540 43.6 528.4 38.3 515.9 34.8 504.1 29.9 494.1 24.9 483.1 23.1 472.3 20.6 462.8 15 452.1 13.1 441.7 10.7 431.3 8.6 418.7 12.3 406.3 17.1 394 22.3 382.7 29.4 374.7 34 365.6 35 354.8 32.2 343.9 28.7 333.2 25 322.2 21.6 311.8 16.9 300.9 13.4 290.5 8.5 279.4 7 268.3 7.7 257.8 11.7 247.9 17.1 237.6 21.4 228 27.5 217.7 31.8 207.2 36.4 195 32.8 184 26.7 172 23.2 160.2 19 148.8 14.1 136.6 11.7 124.4 14.8 111.4 18.2 99 23.3 87.5 29.8 75.6 33.6 63.2 34.8 51.3 38.5 39.2 41.3 26.9 43.1 14.4 43.8 2.4 47.1 -9.5 51 -21.4 53.5 -13.5 59.3 -4.6 66 5.1 71.5 14.5 77.8 22.1 86.6 22.3 95.7 29.5 106.2 35.5 117.1 40.3 128.7 48.5 138.2 55.6 148.4 62.5 158.9 71.4 167.8 79.5 177.2 86.3 187.1 94.3 195.8 104.3 202.5 112.4 211.3 121.9 218.4 130.6 226.5 140.8 232.6 149.9 240.2 161 244.9 171.3 250.7 181.2 257.2 191.7 262.6 202.3 268 212.7 273.5 223.6 278.1 234.5 282.8 245.6 287.1 257.2 289.8 268.1 294.2 279.4 297.4 290.5 293.8 302.3 291.6 312.9 286.1 323.9 282 335.3 278.5 345.8 273.1 356.1 267.2 366.9 262.3 378 257.9 388.6 252.6 397.5 244.4 407.8 238.7 418.6 233.5 426.8 224.7 437.6 219.3 446.4 211.3 455.5 203.6 463.1 194.5 471.7 186.4 "
    fill="#A776A6"/>
  <polygon
    points="542 165 547.8 155.5 553 145.8 559.4 137.6 562.1 127.4 568.6 119.2 571.6 109.1 576.2 99.9 581.9 91.2 585.6 81.6 588.8 71.4 577.9 70.9 567.9 66 557.1 64.9 546.7 62.1 536 60.7 526 63.3 515.7 62.7 505.6 64.7 495.8 67.6 485.7 67.5 475.9 63 465.2 60 455.6 54.5 445 51.6 435 54.6 424.9 57.5 415.5 62.2 406.5 65.4 397.7 69.2 389.9 74.6 382.1 80.8 371.4 78.3 360.8 76.3 350.5 73.3 340.2 70 329.6 67.2 319.6 69.3 309.8 71.5 299.6 70.7 289.9 73.6 279.9 74.1 270.4 71.5 260.2 72.1 250.8 68.7 240.9 67.7 231.2 65.8 221.8 64.3 211.4 68 200.4 71 189.5 74.5 179.6 80.4 170.8 74.6 161.7 70 152.3 66.3 142.5 63.2 132.6 61 122.9 57 113.4 59.7 104.5 63.7 95.4 67.1 87.4 72.8 78.7 78.3 69.5 74 60 72.3 50.1 71.9 40.5 65.9 30.2 61.6 19.7 58.6 10.3 60.2 0.7 62.9 -9.1 64.9 -19.3 64.9 -29 67.3 -38.4 70.7 -35.1 80.4 -30.6 89.7 -24 97.8 -18.2 106.3 -13 115.3 -8.6 124.6 -13.5 128.9 -6.2 136.3 -1 145.2 4.8 153.6 11.7 162.1 20.3 168.7 28.1 176.4 37.3 182.2 46.8 187.6 55.6 192.9 65 197.2 74.4 201.7 82.2 208.8 91.7 213 100.8 217.9 110 222.7 118.4 228.8 128.7 231.5 136.6 238.7 146.8 241.5 155.5 247.1 164.6 252 173.5 257.2 183.4 260.6 191.4 267.6 200.6 272.3 210.2 276.2 219.1 281.5 228.2 286.4 238 290 246.8 295.5 257 298.2 265.5 304.2 275.2 309.1 285.1 304.8 293.8 299 302.6 293.4 312 289.2 321.9 285.9 331.3 281.5 340.2 276.2 348.7 270.3 358.7 267.1 368 262.5 376.5 256.5 386.3 253 395.1 247.5 404.9 244 413 237.2 422.4 232.9 431.8 228.6 440.2 222.4 449.3 217.5 459.3 214.3 467.6 207.9 476.3 202.2 486.2 198.8 494.4 192.3 503.1 186.6 512.9 181.5 522.4 176 532.1 170.7 "
    fill="#DCA8E2"/>
  <path
    d="M470.9 135.3c-40.2-8-136.3 4.8-139.7 5.1 -6.9 0.7-13.7 1.1-20.6 1.7 -8.9 0.7-81.9-3.5-84.6-2.4 -2.7 1.1-5.9 3.2-8.1 2.6 -6.2-1.5-64.2-5.7-75.5-3.3 -42.4 9.3-96.8 0.6-110.2 0 -16.4-0.8-49.2 13.8-51 14.3l28.8 42c57.5 68.5 248.3 133.2 265.5 136 73.3-12.1 286.3-173 290.2-183.5C535.1 143.1 541.4 149.3 470.9 135.3z"
    fill="#F3BADF"/>
</svg>